<svg width="81" height="82" viewBox="0 0 81 82" fill="none" xmlns="http://www.w3.org/2000/svg">
<path d="M23.9029 61.1246V75.7617C23.9029 77.2175 23.3246 78.6136 22.2952 79.643C21.2658 80.6723 19.8697 81.2506 18.4139 81.2506H5.60642C4.15067 81.2506 2.75454 80.6723 1.72516 79.643C0.695788 78.6136 0.117493 77.2175 0.117493 75.7617V61.1246C0.117493 59.6688 0.695788 58.2727 1.72516 57.2433C2.75454 56.2139 4.15067 55.6356 5.60642 55.6356H18.4139C19.8697 55.6356 21.2658 56.2139 22.2952 57.2433C23.3246 58.2727 23.9029 59.6688 23.9029 61.1246ZM46.7734 55.6356H33.9659C32.5101 55.6356 31.114 56.2139 30.0846 57.2433C29.0553 58.2727 28.477 59.6688 28.477 61.1246V75.7617C28.477 77.2175 29.0553 78.6136 30.0846 79.643C31.114 80.6723 32.5101 81.2506 33.9659 81.2506H46.7734C48.2291 81.2506 49.6253 80.6723 50.6546 79.643C51.684 78.6136 52.2623 77.2175 52.2623 75.7617V61.1246C52.2623 59.6688 51.684 58.2727 50.6546 57.2433C49.6253 56.2139 48.2291 55.6356 46.7734 55.6356ZM75.1329 55.6356H62.3254C60.8696 55.6356 59.4735 56.2139 58.4441 57.2433C57.4147 58.2727 56.8364 59.6688 56.8364 61.1246V75.7617C56.8364 77.2175 57.4147 78.6136 58.4441 79.643C59.4735 80.6723 60.8696 81.2506 62.3254 81.2506H75.1329C76.5886 81.2506 77.9847 80.6723 79.0141 79.643C80.0435 78.6136 80.6218 77.2175 80.6218 75.7617V61.1246C80.6218 59.6688 80.0435 58.2727 79.0141 57.2433C77.9847 56.2139 76.5886 55.6356 75.1329 55.6356ZM80.6218 6.23527V42.8281C80.6218 44.2839 80.0435 45.68 79.0141 46.7094C77.9847 47.7388 76.5886 48.3171 75.1329 48.3171H66.7348L38.7595 20.3418C37.7304 19.3139 36.3353 18.7366 34.8807 18.7366C33.4261 18.7366 32.031 19.3139 31.0019 20.3418L3.46574 47.7865C2.48781 47.3725 1.65097 46.6837 1.05667 45.8036C0.462368 44.9235 0.136126 43.8899 0.117493 42.8281V6.23527C0.117493 4.77951 0.695788 3.38338 1.72516 2.35401C2.75454 1.32463 4.15067 0.746338 5.60642 0.746338H75.1329C76.5886 0.746338 77.9847 1.32463 79.0141 2.35401C80.0435 3.38338 80.6218 4.77951 80.6218 6.23527ZM69.6439 19.0428C69.6439 17.5953 69.2147 16.1803 68.4105 14.9768C67.6063 13.7733 66.4633 12.8352 65.1261 12.2813C63.7888 11.7274 62.3172 11.5824 60.8976 11.8648C59.4779 12.1472 58.1739 12.8442 57.1503 13.8678C56.1268 14.8913 55.4298 16.1953 55.1474 17.615C54.865 19.0347 55.0099 20.5062 55.5639 21.8435C56.1178 23.1808 57.0558 24.3238 58.2594 25.1279C59.4629 25.9321 60.8779 26.3613 62.3254 26.3613C64.2664 26.3613 66.1279 25.5903 67.5004 24.2178C68.8729 22.8453 69.6439 20.9838 69.6439 19.0428ZM62.3254 15.3835C61.6016 15.3835 60.8941 15.5981 60.2924 16.0002C59.6906 16.4023 59.2216 16.9738 58.9446 17.6424C58.6676 18.3111 58.5952 19.0468 58.7364 19.7567C58.8776 20.4665 59.2261 21.1185 59.7378 21.6303C60.2496 22.142 60.9016 22.4905 61.6115 22.6317C62.3213 22.7729 63.057 22.7005 63.7257 22.4235C64.3943 22.1465 64.9659 21.6775 65.3679 21.0758C65.77 20.474 65.9846 19.7665 65.9846 19.0428C65.9846 18.0723 65.5991 17.1415 64.9129 16.4553C64.2266 15.769 63.2959 15.3835 62.3254 15.3835ZM33.5817 22.9216L8.18622 48.3171H61.5752L36.1798 22.9216C36.0097 22.7501 35.8073 22.614 35.5843 22.5211C35.3614 22.4282 35.1222 22.3804 34.8807 22.3804C34.6392 22.3804 34.4 22.4282 34.1771 22.5211C33.9541 22.614 33.7518 22.7501 33.5817 22.9216Z" fill="#85D192"/>
</svg>
